<svg width="24" height="24" viewBox="0 0 24 24" fill="none" xmlns="http://www.w3.org/2000/svg">
<mask id="path-1-inside-1_1304_4634" fill="white">
<path fill-rule="evenodd" clip-rule="evenodd" d="M12 24C18.6274 24 24 18.6274 24 12C24 5.37258 18.6274 0 12 0C5.37258 0 0 5.37258 0 12C0 18.6274 5.37258 24 12 24ZM12 18C15.3137 18 18 15.3137 18 12C18 8.68629 15.3137 6 12 6C8.68629 6 6 8.68629 6 12C6 15.3137 8.68629 18 12 18Z"/>
</mask>
<path fill-rule="evenodd" clip-rule="evenodd" d="M12 24C18.6274 24 24 18.6274 24 12C24 5.37258 18.6274 0 12 0C5.37258 0 0 5.37258 0 12C0 18.6274 5.37258 24 12 24ZM12 18C15.3137 18 18 15.3137 18 12C18 8.68629 15.3137 6 12 6C8.68629 6 6 8.68629 6 12C6 15.3137 8.68629 18 12 18Z" fill="#D78060"/>
<path d="M23 12C23 18.0751 18.0751 23 12 23V25C19.1797 25 25 19.1797 25 12H23ZM12 1C18.0751 1 23 5.92487 23 12H25C25 4.8203 19.1797 -1 12 -1V1ZM1 12C1 5.92487 5.92487 1 12 1V-1C4.8203 -1 -1 4.8203 -1 12H1ZM12 23C5.92487 23 1 18.0751 1 12H-1C-1 19.1797 4.8203 25 12 25V23ZM17 12C17 14.7614 14.7614 17 12 17V19C15.866 19 19 15.866 19 12H17ZM12 7C14.7614 7 17 9.23858 17 12H19C19 8.13401 15.866 5 12 5V7ZM7 12C7 9.23858 9.23858 7 12 7V5C8.13401 5 5 8.13401 5 12H7ZM12 17C9.23858 17 7 14.7614 7 12H5C5 15.866 8.13401 19 12 19V17Z" fill="black" mask="url(#path-1-inside-1_1304_4634)"/>
</svg>
