<svg width="172" height="171" viewBox="0 0 172 171" fill="none" xmlns="http://www.w3.org/2000/svg">
<path d="M11.3711 58.1474C16.4715 84.2927 26.0612 106.021 39.8135 128.778C47.3259 141.209 58.4027 141.816 70.1379 134.727C86.9275 124.585 91.66 102.65 106.661 90.0839C113.092 84.6961 120.51 79.5289 129.187 82.9585C142.567 88.2474 153.354 102.842 163.197 112.656" stroke="#452206" stroke-width="16" stroke-linecap="round"/>
<path d="M9.37105 52.1474C14.4715 78.2927 24.0612 100.021 37.8135 122.778C45.3259 135.209 56.4027 135.816 68.1379 128.727C84.9275 118.585 89.66 96.6497 104.661 84.0839C111.092 78.6961 118.51 73.5289 127.187 76.9585C140.567 82.2474 151.354 96.8418 161.197 106.656" stroke="#F1B9E8" stroke-width="16" stroke-linecap="round"/>
</svg>
